<svg xmlns="http://www.w3.org/2000/svg" xmlns:xlink="http://www.w3.org/1999/xlink" width="500" zoomAndPan="magnify" viewBox="0 0 375 374.999991" height="500" preserveAspectRatio="xMidYMid meet" version="1.0"><defs><clipPath id="87431256a6"><path d="M 61.445312 37.5 L 304.675781 37.5 L 304.675781 309.925781 L 61.445312 309.925781 Z M 61.445312 37.5 " clip-rule="nonzero"/></clipPath><clipPath id="27548486f3"><path d="M 28 2.230469 L 345 2.230469 L 345 372.730469 L 28 372.730469 Z M 28 2.230469 " clip-rule="nonzero"/></clipPath></defs><g clip-path="url(#87431256a6)"><path fill="#ffffff" d="M 61.445312 37.5 L 304.675781 37.5 L 304.675781 310.179688 L 61.445312 310.179688 Z M 61.445312 37.5 " fill-opacity="1" fill-rule="nonzero"/></g><g clip-path="url(#27548486f3)"><path fill="#0093e8" d="M 344.972656 2.230469 L 28.472656 2.230469 L 57.234375 329.582031 L 186.722656 372.765625 L 316.210938 329.582031 Z M 282.582031 107.507812 L 187.292969 148.375 L 279.203125 148.375 L 268.65625 269.632812 L 187.726562 293.363281 L 106.300781 269.199219 L 101.019531 208.078125 L 141.316406 208.078125 L 143.957031 239.742188 L 187.308594 250.734375 L 232.390625 238 L 235.433594 187.066406 L 98.195312 186.664062 L 95.214844 148.375 L 192.960938 107.507812 L 91.679688 107.507812 L 86.894531 68.386719 L 286.535156 68.386719 Z M 282.582031 107.507812 " fill-opacity="1" fill-rule="nonzero"/></g></svg>