<svg xmlns="http://www.w3.org/2000/svg" xmlns:xlink="http://www.w3.org/1999/xlink" width="500" zoomAndPan="magnify" viewBox="0 0 375 374.999991" height="500" preserveAspectRatio="xMidYMid meet" version="1.0"><path fill="#f7009b" d="M 71.984375 81.53125 C 56.234375 72.28125 36.109375 77.75 27.015625 93.75 C 25.46875 96.515625 24.296875 99.5 23.578125 102.59375 C 19.328125 120.578125 30.203125 138.65625 47.859375 142.96875 L 47.84375 232.015625 C 41.734375 233.53125 36.15625 236.796875 31.8125 241.4375 C 19.28125 254.796875 19.765625 275.96875 32.890625 288.71875 C 46.03125 301.484375 66.84375 300.96875 79.375 287.625 L 155.203125 332.109375 C 154.296875 335.21875 153.84375 338.421875 153.84375 341.625 C 153.859375 360.078125 168.578125 375.015625 186.71875 375 C 190.21875 375 193.671875 374.421875 197.015625 373.3125 C 214.265625 367.515625 223.640625 348.59375 217.921875 331.03125 L 293.265625 286.78125 C 295.59375 289.4375 298.34375 291.71875 301.34375 293.484375 C 317.109375 302.734375 337.21875 297.25 346.3125 281.265625 C 347.921875 278.4375 349.140625 275.375 349.875 272.1875 C 354.078125 254.28125 343.203125 236.3125 325.609375 232.046875 L 325.609375 143 C 328.640625 142.25 331.515625 141.078125 334.1875 139.515625 C 349.984375 130.3125 355.46875 109.828125 346.40625 93.765625 C 344.828125 91.015625 342.890625 88.5 340.609375 86.3125 C 327.421875 73.5625 306.5625 74.09375 294.03125 87.515625 L 218.21875 42.984375 C 219.125 39.875 219.609375 36.609375 219.59375 33.34375 C 219.578125 14.90625 204.859375 -0.015625 186.71875 0 C 183.546875 0 180.375 0.453125 177.34375 1.375 C 159.984375 6.609375 150.046875 25.1875 155.203125 42.890625 L 79.34375 87.421875 C 77.1875 85.09375 74.703125 83.109375 71.984375 81.53125 Z M 211.03125 319.078125 C 205 312.375 196.34375 308.171875 186.71875 308.171875 C 177.40625 308.171875 169.015625 312.0625 163.0625 318.375 L 87.1875 273.8125 L 87.515625 272.515625 L 285.921875 272.515625 C 286.09375 273.265625 286.28125 274 286.5 274.734375 Z M 210.3125 56.6875 L 286.296875 101.34375 C 286.1875 101.703125 286.09375 102.09375 286 102.46875 C 281.640625 120.375 292.34375 138.484375 309.9375 142.90625 L 309.9375 232.078125 C 309.53125 232.1875 309.078125 232.296875 308.671875 232.4375 L 209.421875 57.59375 C 209.75 57.296875 210.03125 57.015625 210.3125 56.6875 Z M 177.578125 65.53125 C 183.546875 67.28125 189.890625 67.28125 195.890625 65.53125 L 295.15625 240.3125 C 290.609375 244.734375 287.390625 250.40625 285.890625 256.625 L 87.5625 256.625 C 86.0625 250.4375 82.859375 244.78125 78.34375 240.359375 Z M 87.09375 101.234375 L 163.078125 56.671875 L 164 57.609375 L 64.78125 232.4375 L 63.484375 232.078125 L 63.484375 142.890625 C 63.875 142.78125 64.25 142.6875 64.65625 142.5625 C 82.078125 137.453125 92.125 118.96875 87.09375 101.234375 Z M 87.09375 101.234375 " fill-opacity="1" fill-rule="nonzero"/></svg>