<svg xmlns="http://www.w3.org/2000/svg" xmlns:xlink="http://www.w3.org/1999/xlink" width="500" zoomAndPan="magnify" viewBox="0 0 375 374.999991" height="500" preserveAspectRatio="xMidYMid meet" version="1.0"><defs><clipPath id="d1084e09c8"><path d="M 105 4.722656 L 190 4.722656 L 190 326 L 105 326 Z M 105 4.722656 " clip-rule="nonzero"/></clipPath><clipPath id="28549899e1"><path d="M 181 279 L 202 279 L 202 369.972656 L 181 369.972656 Z M 181 279 " clip-rule="nonzero"/></clipPath></defs><path fill="#599636" d="M 187.0625 5.714844 L 196.835938 24.023438 C 199.03125 27.402344 201.410156 30.394531 204.214844 33.179688 C 212.394531 41.339844 220.164062 49.886719 227.144531 59.042969 C 243.703125 80.730469 254.867188 104.8125 262.84375 130.859375 C 267.625 146.769531 270.222656 163.09375 270.417969 179.597656 C 271.21875 228.941406 254.261719 271.308594 220.074219 306.523438 C 214.488281 312.09375 208.515625 317.25 202.109375 321.839844 C 198.722656 321.839844 197.121094 319.25 195.726562 316.863281 C 193.128906 312.492188 191.539062 307.503906 190.738281 302.539062 C 189.535156 296.570312 188.746094 290.597656 189.136719 284.4375 L 189.136719 281.652344 C 188.859375 281.058594 185.875 7.121094 187.0625 5.714844 Z M 187.0625 5.714844 " fill-opacity="1" fill-rule="nonzero"/><g clip-path="url(#d1084e09c8)"><path fill="#6cac48" d="M 187.0625 5.109375 C 186.664062 4.3125 186.261719 4.917969 185.863281 5.304688 C 186.058594 9.300781 184.660156 12.859375 182.476562 16.261719 C 180.074219 19.640625 176.890625 22.230469 173.699219 25.015625 C 155.964844 40.335938 142.003906 58.835938 130.828125 79.53125 C 115.953125 107.382812 108.285156 137.230469 106.113281 168.652344 C 105.117188 179.984375 109.703125 219.980469 113.285156 231.519531 C 123.058594 262.15625 140.609375 287.824219 163.34375 310.105469 C 168.929688 315.472656 174.902344 320.449219 181.078125 325.230469 C 182.875 325.230469 183.070312 323.632812 183.484375 322.445312 C 184.269531 319.902344 184.871094 317.3125 185.277344 314.683594 L 189.285156 284.847656 Z M 187.0625 5.109375 " fill-opacity="1" fill-rule="nonzero"/></g><g clip-path="url(#28549899e1)"><path fill="#c2bfbf" d="M 196.835938 333.960938 C 197.234375 329.394531 199.433594 325.605469 201.824219 321.828125 C 199.421875 320.835938 197.636719 318.859375 196.242188 316.65625 C 195.039062 314.671875 194.042969 312.285156 193.265625 310.09375 C 190.472656 301.738281 189.878906 292.972656 189.078125 284.4375 L 189.078125 279.265625 C 188.082031 280.0625 187.875 286.820312 187.875 287.824219 C 187.292969 296.859375 186.097656 305.8125 184.285156 314.683594 C 183.6875 318.265625 183.289062 321.839844 181.078125 325.023438 C 181.078125 325.425781 181.078125 325.824219 181.273438 326.417969 C 184.867188 336.964844 185.851562 347.703125 186.457031 358.648438 L 186.457031 362.644531 C 186.457031 367.417969 186.261719 366.410156 190.234375 368.007812 C 191.835938 368.601562 193.621094 368.808594 195.222656 369.996094 C 196.421875 369.996094 196.617188 369.003906 196.617188 368.203125 L 196.023438 361.640625 L 196.023438 343.332031 C 195.828125 340.136719 196.421875 336.964844 196.824219 333.972656 Z M 196.835938 333.960938 " fill-opacity="1" fill-rule="nonzero"/></g></svg>