<svg xmlns="http://www.w3.org/2000/svg" xmlns:xlink="http://www.w3.org/1999/xlink" width="500" zoomAndPan="magnify" viewBox="0 0 375 374.999991" height="500" preserveAspectRatio="xMidYMid meet" version="1.0"><defs><g/><clipPath id="f1f03d2e42"><path d="M 12.6875 86.464844 L 370.765625 86.464844 L 370.765625 198.964844 L 12.6875 198.964844 Z M 12.6875 86.464844 " clip-rule="nonzero"/></clipPath><clipPath id="2574e58e67"><path d="M 119.707031 92.402344 L 173.730469 92.402344 L 173.730469 204.902344 L 119.707031 204.902344 Z M 119.707031 92.402344 " clip-rule="nonzero"/></clipPath><clipPath id="15af2ed171"><path d="M 3.410156 75 L 371.660156 75 L 371.660156 221 L 3.410156 221 Z M 3.410156 75 " clip-rule="nonzero"/></clipPath></defs><g clip-path="url(#f1f03d2e42)"><path fill="#ffffff" d="M 12.6875 86.464844 L 370.84375 86.464844 L 370.84375 198.964844 L 12.6875 198.964844 Z M 12.6875 86.464844 " fill-opacity="1" fill-rule="nonzero"/></g><g clip-path="url(#2574e58e67)"><path fill="#ffffff" d="M 119.707031 92.402344 L 173.730469 92.402344 L 173.730469 204.875 L 119.707031 204.875 Z M 119.707031 92.402344 " fill-opacity="1" fill-rule="nonzero"/></g><path fill="#c53735" d="M 167.082031 116.578125 L 187.535156 116.578125 L 187.535156 158.144531 L 167.082031 158.144531 Z M 167.082031 116.578125 " fill-opacity="1" fill-rule="nonzero"/><g clip-path="url(#15af2ed171)"><path fill="#c53735" d="M 371.660156 75.011719 L 3.410156 75.011719 L 3.410156 199.726562 L 105.707031 199.726562 L 105.707031 220.511719 L 187.535156 220.511719 L 187.535156 199.726562 L 371.660156 199.726562 Z M 105.707031 178.945312 L 85.238281 178.945312 L 85.238281 116.578125 L 64.785156 116.578125 L 64.785156 178.929688 L 23.863281 178.929688 L 23.863281 95.796875 L 105.691406 95.796875 L 105.691406 178.945312 Z M 207.988281 178.945312 L 167.066406 178.945312 L 167.066406 199.726562 L 126.160156 199.726562 L 126.160156 95.796875 L 207.988281 95.796875 Z M 351.207031 178.945312 L 330.753906 178.945312 L 330.753906 116.578125 L 310.285156 116.578125 L 310.285156 178.929688 L 289.832031 178.929688 L 289.832031 116.578125 L 269.378906 116.578125 L 269.378906 178.929688 L 228.457031 178.929688 L 228.457031 95.796875 L 351.207031 95.796875 Z M 351.207031 178.945312 " fill-opacity="1" fill-rule="nonzero"/></g><g fill="#ffffff" fill-opacity="1"><g transform="translate(4.2341, 297.106734)"><g><path d="M 48.75 0 L 6.46875 0 L 6.46875 -57.28125 L 48.203125 -57.28125 L 48.203125 -50.421875 L 14.21875 -50.421875 L 14.21875 -32.890625 L 45.5625 -32.890625 L 45.5625 -26.03125 L 14.21875 -26.03125 L 14.21875 -6.859375 L 48.75 -6.859375 Z M 48.75 0 "/></g></g><g transform="translate(56.100336, 297.106734)"><g><path d="M 39.125 0 L 30.078125 0 L 19.796875 -15.703125 L 9.75 0 L 0.890625 0 L 15.46875 -21.46875 L 1.59375 -41.734375 L 10.515625 -41.734375 L 20.1875 -27.046875 L 29.9375 -41.734375 L 38.46875 -41.734375 L 24.4375 -21.46875 Z M 39.125 0 "/></g></g><g transform="translate(96.003436, 297.106734)"><g><path d="M 11.96875 -18.90625 C 11.96875 -14.4375 13.054688 -10.976562 15.234375 -8.53125 C 17.421875 -6.09375 20.132812 -4.875 23.375 -4.875 C 26.9375 -4.875 29.703125 -6.320312 31.671875 -9.21875 C 33.648438 -12.113281 34.640625 -16.039062 34.640625 -21 C 34.640625 -26.4375 33.691406 -30.398438 31.796875 -32.890625 C 29.898438 -35.378906 27.046875 -36.625 23.234375 -36.625 C 19.515625 -36.625 16.707031 -35.160156 14.8125 -32.234375 C 12.914062 -29.316406 11.96875 -24.875 11.96875 -18.90625 Z M 5.265625 -41.734375 L 11.890625 -41.734375 L 11.890625 -35.859375 L 12.046875 -35.859375 C 15.035156 -40.585938 19.191406 -42.953125 24.515625 -42.953125 C 29.890625 -42.953125 34.128906 -40.992188 37.234375 -37.078125 C 40.335938 -33.171875 41.890625 -28.175781 41.890625 -22.09375 C 41.890625 -15.289062 40.304688 -9.707031 37.140625 -5.34375 C 33.972656 -0.976562 29.4375 1.203125 23.53125 1.203125 C 18.707031 1.203125 15.007812 -0.664062 12.4375 -4.40625 L 12.28125 -4.40625 L 12.28125 16.53125 L 5.265625 16.53125 Z M 5.265625 -41.734375 "/></g></g><g transform="translate(141.089263, 297.106734)"><g><path d="M 12.28125 0 L 5.265625 0 L 5.265625 -41.734375 L 11.890625 -41.734375 L 11.890625 -34.796875 L 12.046875 -34.796875 C 15.085938 -40.234375 18.992188 -42.953125 23.765625 -42.953125 C 24.523438 -42.953125 25.140625 -42.875 25.609375 -42.71875 L 25.609375 -35.421875 L 23 -35.421875 C 19.851562 -35.421875 17.28125 -34.351562 15.28125 -32.21875 C 13.28125 -30.09375 12.28125 -27.445312 12.28125 -24.28125 Z M 12.28125 0 "/></g></g><g transform="translate(167.080833, 297.106734)"><g><path d="M 33.90625 -24.203125 C 33.539062 -28.722656 32.34375 -31.921875 30.3125 -33.796875 C 28.289062 -35.679688 25.601562 -36.625 22.25 -36.625 C 18.84375 -36.625 16.09375 -35.429688 14 -33.046875 C 11.914062 -30.660156 10.804688 -27.710938 10.671875 -24.203125 Z M 40.609375 -13.09375 C 39.828125 -8.78125 37.707031 -5.207031 34.25 -2.375 C 31.21875 0.0078125 27.21875 1.226562 22.25 1.28125 C 16.40625 1.226562 11.769531 -0.679688 8.34375 -4.453125 C 4.914062 -8.234375 3.203125 -13.320312 3.203125 -19.71875 C 3.203125 -27.039062 4.96875 -32.742188 8.5 -36.828125 C 12.03125 -40.910156 16.941406 -42.953125 23.234375 -42.953125 C 28.867188 -42.953125 33.269531 -40.84375 36.4375 -36.625 C 39.601562 -32.414062 41.1875 -26.40625 41.1875 -18.59375 L 10.671875 -18.59375 C 10.671875 -14.226562 11.679688 -10.847656 13.703125 -8.453125 C 15.734375 -6.066406 18.78125 -4.875 22.84375 -4.875 C 25.695312 -4.875 28.148438 -5.734375 30.203125 -7.453125 C 32.253906 -9.179688 33.382812 -11.0625 33.59375 -13.09375 Z M 40.609375 -13.09375 "/></g></g><g transform="translate(211.309367, 297.106734)"><g><path d="M 28.796875 -29.859375 C 28.691406 -32.347656 27.800781 -34.132812 26.125 -35.21875 C 24.445312 -36.3125 22.039062 -36.859375 18.90625 -36.859375 C 16.613281 -36.859375 14.65625 -36.351562 13.03125 -35.34375 C 11.40625 -34.332031 10.59375 -32.878906 10.59375 -30.984375 C 10.59375 -29.472656 11.070312 -28.359375 12.03125 -27.640625 C 13 -26.929688 15.082031 -26.175781 18.28125 -25.375 L 25.21875 -23.609375 C 29.425781 -22.546875 32.429688 -21.1875 34.234375 -19.53125 C 36.035156 -17.882812 36.9375 -15.582031 36.9375 -12.625 C 36.9375 -8.519531 35.4375 -5.1875 32.4375 -2.625 C 29.4375 -0.0703125 25.429688 1.203125 20.421875 1.203125 C 14.578125 1.203125 10.15625 -0.0078125 7.15625 -2.4375 C 4.15625 -4.863281 2.628906 -8.519531 2.578125 -13.40625 L 9.359375 -13.40625 C 9.460938 -10.519531 10.414062 -8.375 12.21875 -6.96875 C 14.019531 -5.570312 16.726562 -4.875 20.34375 -4.875 C 23.28125 -4.875 25.613281 -5.457031 27.34375 -6.625 C 29.070312 -7.789062 29.9375 -9.414062 29.9375 -11.5 C 29.9375 -12.976562 29.375 -14.160156 28.25 -15.046875 C 27.132812 -15.929688 24.925781 -16.75 21.625 -17.5 L 13.484375 -19.484375 C 10.179688 -20.316406 7.742188 -21.554688 6.171875 -23.203125 C 4.597656 -24.859375 3.8125 -27 3.8125 -29.625 C 3.8125 -33.726562 5.28125 -36.972656 8.21875 -39.359375 C 11.15625 -41.753906 14.988281 -42.953125 19.71875 -42.953125 C 24.757812 -42.953125 28.625 -41.722656 31.3125 -39.265625 C 34 -36.804688 35.421875 -33.671875 35.578125 -29.859375 Z M 28.796875 -29.859375 "/></g></g><g transform="translate(251.212467, 297.106734)"><g><path d="M 28.796875 -29.859375 C 28.691406 -32.347656 27.800781 -34.132812 26.125 -35.21875 C 24.445312 -36.3125 22.039062 -36.859375 18.90625 -36.859375 C 16.613281 -36.859375 14.65625 -36.351562 13.03125 -35.34375 C 11.40625 -34.332031 10.59375 -32.878906 10.59375 -30.984375 C 10.59375 -29.472656 11.070312 -28.359375 12.03125 -27.640625 C 13 -26.929688 15.082031 -26.175781 18.28125 -25.375 L 25.21875 -23.609375 C 29.425781 -22.546875 32.429688 -21.1875 34.234375 -19.53125 C 36.035156 -17.882812 36.9375 -15.582031 36.9375 -12.625 C 36.9375 -8.519531 35.4375 -5.1875 32.4375 -2.625 C 29.4375 -0.0703125 25.429688 1.203125 20.421875 1.203125 C 14.578125 1.203125 10.15625 -0.0078125 7.15625 -2.4375 C 4.15625 -4.863281 2.628906 -8.519531 2.578125 -13.40625 L 9.359375 -13.40625 C 9.460938 -10.519531 10.414062 -8.375 12.21875 -6.96875 C 14.019531 -5.570312 16.726562 -4.875 20.34375 -4.875 C 23.28125 -4.875 25.613281 -5.457031 27.34375 -6.625 C 29.070312 -7.789062 29.9375 -9.414062 29.9375 -11.5 C 29.9375 -12.976562 29.375 -14.160156 28.25 -15.046875 C 27.132812 -15.929688 24.925781 -16.75 21.625 -17.5 L 13.484375 -19.484375 C 10.179688 -20.316406 7.742188 -21.554688 6.171875 -23.203125 C 4.597656 -24.859375 3.8125 -27 3.8125 -29.625 C 3.8125 -33.726562 5.28125 -36.972656 8.21875 -39.359375 C 11.15625 -41.753906 14.988281 -42.953125 19.71875 -42.953125 C 24.757812 -42.953125 28.625 -41.722656 31.3125 -39.265625 C 34 -36.804688 35.421875 -33.671875 35.578125 -29.859375 Z M 28.796875 -29.859375 "/></g></g><g transform="translate(291.115567, 297.106734)"><g><path d="M 15.234375 0 L 6.9375 0 L 6.9375 -8.453125 L 15.234375 -8.453125 Z M 15.234375 0 "/></g></g><g transform="translate(313.288286, 297.106734)"><g><path d="M 12.28125 -49.34375 L 5.265625 -49.34375 L 5.265625 -57.28125 L 12.28125 -57.28125 Z M 12.28125 6.15625 C 12.28125 10.132812 11.335938 12.894531 9.453125 14.4375 C 7.566406 15.976562 4.945312 16.75 1.59375 16.75 C 0.632812 16.75 -0.347656 16.675781 -1.359375 16.53125 L -1.359375 10.4375 L 0.46875 10.4375 C 2.4375 10.4375 3.726562 10.144531 4.34375 9.5625 C 4.957031 8.976562 5.265625 7.570312 5.265625 5.34375 L 5.265625 -41.734375 L 12.28125 -41.734375 Z M 12.28125 6.15625 "/></g></g><g transform="translate(330.862796, 297.106734)"><g><path d="M 28.796875 -29.859375 C 28.691406 -32.347656 27.800781 -34.132812 26.125 -35.21875 C 24.445312 -36.3125 22.039062 -36.859375 18.90625 -36.859375 C 16.613281 -36.859375 14.65625 -36.351562 13.03125 -35.34375 C 11.40625 -34.332031 10.59375 -32.878906 10.59375 -30.984375 C 10.59375 -29.472656 11.070312 -28.359375 12.03125 -27.640625 C 13 -26.929688 15.082031 -26.175781 18.28125 -25.375 L 25.21875 -23.609375 C 29.425781 -22.546875 32.429688 -21.1875 34.234375 -19.53125 C 36.035156 -17.882812 36.9375 -15.582031 36.9375 -12.625 C 36.9375 -8.519531 35.4375 -5.1875 32.4375 -2.625 C 29.4375 -0.0703125 25.429688 1.203125 20.421875 1.203125 C 14.578125 1.203125 10.15625 -0.0078125 7.15625 -2.4375 C 4.15625 -4.863281 2.628906 -8.519531 2.578125 -13.40625 L 9.359375 -13.40625 C 9.460938 -10.519531 10.414062 -8.375 12.21875 -6.96875 C 14.019531 -5.570312 16.726562 -4.875 20.34375 -4.875 C 23.28125 -4.875 25.613281 -5.457031 27.34375 -6.625 C 29.070312 -7.789062 29.9375 -9.414062 29.9375 -11.5 C 29.9375 -12.976562 29.375 -14.160156 28.25 -15.046875 C 27.132812 -15.929688 24.925781 -16.75 21.625 -17.5 L 13.484375 -19.484375 C 10.179688 -20.316406 7.742188 -21.554688 6.171875 -23.203125 C 4.597656 -24.859375 3.8125 -27 3.8125 -29.625 C 3.8125 -33.726562 5.28125 -36.972656 8.21875 -39.359375 C 11.15625 -41.753906 14.988281 -42.953125 19.71875 -42.953125 C 24.757812 -42.953125 28.625 -41.722656 31.3125 -39.265625 C 34 -36.804688 35.421875 -33.671875 35.578125 -29.859375 Z M 28.796875 -29.859375 "/></g></g></g></svg>