<svg xmlns="http://www.w3.org/2000/svg" xmlns:xlink="http://www.w3.org/1999/xlink" width="500" zoomAndPan="magnify" viewBox="0 0 375 374.999991" height="500" preserveAspectRatio="xMidYMid meet" version="1.0"><defs><clipPath id="c96b96c3dd"><path d="M 53.472656 72.917969 L 224.304688 72.917969 L 224.304688 243.75 L 53.472656 243.75 Z M 53.472656 72.917969 " clip-rule="nonzero"/></clipPath><clipPath id="17899bf6a5"><path d="M 138.890625 72.917969 C 91.714844 72.917969 53.472656 111.160156 53.472656 158.332031 C 53.472656 205.507812 91.714844 243.75 138.890625 243.75 C 186.0625 243.75 224.304688 205.507812 224.304688 158.332031 C 224.304688 111.160156 186.0625 72.917969 138.890625 72.917969 Z M 138.890625 72.917969 " clip-rule="nonzero"/></clipPath><clipPath id="cf1aa3a931"><path d="M 187.5 72.917969 L 358.332031 72.917969 L 358.332031 243.75 L 187.5 243.75 Z M 187.5 72.917969 " clip-rule="nonzero"/></clipPath><clipPath id="be73259083"><path d="M 272.917969 72.917969 C 225.742188 72.917969 187.5 111.160156 187.5 158.332031 C 187.5 205.507812 225.742188 243.75 272.917969 243.75 C 320.089844 243.75 358.332031 205.507812 358.332031 158.332031 C 358.332031 111.160156 320.089844 72.917969 272.917969 72.917969 Z M 272.917969 72.917969 " clip-rule="nonzero"/></clipPath><clipPath id="3cd608003f"><path d="M 72.917969 18.519531 L 163.65625 18.519531 L 163.65625 109.257812 L 72.917969 109.257812 Z M 72.917969 18.519531 " clip-rule="nonzero"/></clipPath><clipPath id="c136610494"><path d="M 118.285156 18.519531 C 93.230469 18.519531 72.917969 38.832031 72.917969 63.890625 C 72.917969 88.945312 93.230469 109.257812 118.285156 109.257812 C 143.34375 109.257812 163.65625 88.945312 163.65625 63.890625 C 163.65625 38.832031 143.34375 18.519531 118.285156 18.519531 Z M 118.285156 18.519531 " clip-rule="nonzero"/></clipPath><clipPath id="96759addb4"><path d="M 256.480469 18.519531 L 347.222656 18.519531 L 347.222656 109.257812 L 256.480469 109.257812 Z M 256.480469 18.519531 " clip-rule="nonzero"/></clipPath><clipPath id="988ab6954a"><path d="M 301.851562 18.519531 C 276.792969 18.519531 256.480469 38.832031 256.480469 63.890625 C 256.480469 88.945312 276.792969 109.257812 301.851562 109.257812 C 326.910156 109.257812 347.222656 88.945312 347.222656 63.890625 C 347.222656 38.832031 326.910156 18.519531 301.851562 18.519531 Z M 301.851562 18.519531 " clip-rule="nonzero"/></clipPath><clipPath id="0ae11e73f0"><path d="M 158.796875 253.472656 L 271.296875 253.472656 L 271.296875 365.972656 L 158.796875 365.972656 Z M 158.796875 253.472656 " clip-rule="nonzero"/></clipPath><clipPath id="97ac49e2c3"><path d="M 215.046875 253.472656 C 183.980469 253.472656 158.796875 278.65625 158.796875 309.722656 C 158.796875 340.789062 183.980469 365.972656 215.046875 365.972656 C 246.113281 365.972656 271.296875 340.789062 271.296875 309.722656 C 271.296875 278.65625 246.113281 253.472656 215.046875 253.472656 Z M 215.046875 253.472656 " clip-rule="nonzero"/></clipPath><clipPath id="4673c9daa5"><path d="M 92.59375 30.785156 L 337.5 30.785156 L 337.5 275.695312 L 92.59375 275.695312 Z M 92.59375 30.785156 " clip-rule="nonzero"/></clipPath><clipPath id="80211ad7a6"><path d="M 215.046875 30.785156 C 147.417969 30.785156 92.59375 85.613281 92.59375 153.242188 C 92.59375 220.871094 147.417969 275.695312 215.046875 275.695312 C 282.675781 275.695312 337.5 220.871094 337.5 153.242188 C 337.5 85.613281 282.675781 30.785156 215.046875 30.785156 Z M 215.046875 30.785156 " clip-rule="nonzero"/></clipPath><clipPath id="e5340f0860"><path d="M 156.25 320.140625 L 224.304688 320.140625 L 224.304688 375 L 156.25 375 Z M 156.25 320.140625 " clip-rule="nonzero"/></clipPath><clipPath id="5787d37824"><path d="M 203.242188 320.140625 L 271.296875 320.140625 L 271.296875 375 L 203.242188 375 Z M 203.242188 320.140625 " clip-rule="nonzero"/></clipPath><clipPath id="62eaa44b53"><path d="M 3 4 L 373.125 4 L 373.125 375 L 3 375 Z M 3 4 " clip-rule="nonzero"/></clipPath></defs><g clip-path="url(#c96b96c3dd)"><g clip-path="url(#17899bf6a5)"><path fill="#000000" d="M 53.472656 72.917969 L 224.304688 72.917969 L 224.304688 243.75 L 53.472656 243.75 Z M 53.472656 72.917969 " fill-opacity="1" fill-rule="nonzero"/></g></g><g clip-path="url(#cf1aa3a931)"><g clip-path="url(#be73259083)"><path fill="#000000" d="M 187.5 72.917969 L 358.332031 72.917969 L 358.332031 243.75 L 187.5 243.75 Z M 187.5 72.917969 " fill-opacity="1" fill-rule="nonzero"/></g></g><g clip-path="url(#3cd608003f)"><g clip-path="url(#c136610494)"><path fill="#000000" d="M 72.917969 18.519531 L 163.65625 18.519531 L 163.65625 109.257812 L 72.917969 109.257812 Z M 72.917969 18.519531 " fill-opacity="1" fill-rule="nonzero"/></g></g><g clip-path="url(#96759addb4)"><g clip-path="url(#988ab6954a)"><path fill="#000000" d="M 256.480469 18.519531 L 347.222656 18.519531 L 347.222656 109.257812 L 256.480469 109.257812 Z M 256.480469 18.519531 " fill-opacity="1" fill-rule="nonzero"/></g></g><g clip-path="url(#0ae11e73f0)"><g clip-path="url(#97ac49e2c3)"><path fill="#000000" d="M 158.796875 253.472656 L 271.296875 253.472656 L 271.296875 365.972656 L 158.796875 365.972656 Z M 158.796875 253.472656 " fill-opacity="1" fill-rule="nonzero"/></g></g><g clip-path="url(#4673c9daa5)"><g clip-path="url(#80211ad7a6)"><path fill="#000000" d="M 92.59375 30.785156 L 337.5 30.785156 L 337.5 275.695312 L 92.59375 275.695312 Z M 92.59375 30.785156 " fill-opacity="1" fill-rule="nonzero"/></g></g><g clip-path="url(#e5340f0860)"><path fill="#000000" d="M 156.25 320.140625 L 224.304688 320.140625 L 224.304688 392.714844 L 156.25 392.714844 Z M 156.25 320.140625 " fill-opacity="1" fill-rule="nonzero"/></g><g clip-path="url(#5787d37824)"><path fill="#000000" d="M 203.242188 320.140625 L 271.296875 320.140625 L 271.296875 392.714844 L 203.242188 392.714844 Z M 203.242188 320.140625 " fill-opacity="1" fill-rule="nonzero"/></g><g clip-path="url(#62eaa44b53)"><path fill="#cfd8dc" d="M 268.0625 374.980469 C 267.453125 374.980469 266.847656 374.953125 266.242188 374.890625 C 265.636719 374.832031 265.035156 374.742188 264.441406 374.625 C 263.84375 374.507812 263.253906 374.359375 262.671875 374.183594 C 262.089844 374.003906 261.519531 373.800781 260.957031 373.566406 C 260.394531 373.335938 259.847656 373.074219 259.3125 372.789062 C 258.773438 372.503906 258.253906 372.191406 257.75 371.851562 C 257.242188 371.515625 256.753906 371.152344 256.285156 370.769531 C 255.816406 370.382812 255.367188 369.972656 254.9375 369.542969 C 254.503906 369.113281 254.097656 368.664062 253.710938 368.195312 C 253.328125 367.726562 252.964844 367.238281 252.628906 366.730469 C 252.289062 366.226562 251.976562 365.707031 251.691406 365.167969 C 251.402344 364.632812 251.144531 364.082031 250.910156 363.523438 C 250.679688 362.960938 250.472656 362.390625 250.296875 361.808594 C 250.121094 361.226562 249.972656 360.636719 249.855469 360.039062 C 249.738281 359.445312 249.648438 358.84375 249.589844 358.238281 C 249.527344 357.632812 249.5 357.027344 249.5 356.417969 L 249.5 308.15625 C 249.785156 305.378906 249.785156 302.605469 249.492188 299.828125 C 249.195312 297.054688 248.617188 294.339844 247.753906 291.6875 C 246.890625 289.03125 245.761719 286.496094 244.367188 284.082031 C 242.972656 281.664062 241.339844 279.417969 239.476562 277.34375 C 238.320312 276.089844 237.355469 274.703125 236.582031 273.183594 C 235.808594 271.664062 235.253906 270.070312 234.917969 268.398438 C 234.585938 266.726562 234.484375 265.042969 234.613281 263.34375 C 234.742188 261.640625 235.101562 259.992188 235.6875 258.390625 C 236.269531 256.789062 237.0625 255.296875 238.058594 253.914062 C 239.054688 252.53125 240.21875 251.308594 241.550781 250.246094 C 242.882812 249.183594 244.335938 248.320312 245.90625 247.65625 C 247.476562 246.996094 249.105469 246.554688 250.796875 246.34375 C 296.089844 240.960938 337.855469 226.480469 337.855469 147.960938 C 337.859375 144.316406 337.597656 140.691406 337.066406 137.082031 C 336.535156 133.476562 335.742188 129.925781 334.691406 126.4375 C 333.636719 122.945312 332.332031 119.550781 330.78125 116.253906 C 329.226562 112.953125 327.4375 109.789062 325.417969 106.753906 C 323.5625 103.972656 321.996094 101.035156 320.71875 97.945312 C 319.4375 94.855469 318.472656 91.667969 317.820312 88.390625 C 317.167969 85.109375 316.839844 81.796875 316.835938 78.453125 C 316.835938 75.109375 317.160156 71.796875 317.808594 68.515625 C 319.496094 59.789062 319.496094 51.066406 317.808594 42.339844 C 303.824219 47.070312 290.894531 53.8125 279.011719 62.574219 C 277.898438 63.367188 276.707031 64.027344 275.445312 64.558594 C 274.183594 65.085938 272.875 65.472656 271.527344 65.714844 C 270.179688 65.953125 268.824219 66.042969 267.453125 65.984375 C 266.085938 65.925781 264.742188 65.714844 263.421875 65.359375 C 255.085938 63.003906 246.628906 61.230469 238.050781 60.042969 C 229.46875 58.855469 220.847656 58.257812 212.1875 58.257812 C 203.527344 58.257812 194.90625 58.855469 186.328125 60.042969 C 177.746094 61.230469 169.289062 63.003906 160.957031 65.359375 C 159.632812 65.714844 158.289062 65.925781 156.921875 65.984375 C 155.554688 66.042969 154.195312 65.953125 152.847656 65.714844 C 151.5 65.472656 150.195312 65.085938 148.929688 64.558594 C 147.667969 64.027344 146.480469 63.367188 145.363281 62.574219 C 133.402344 53.707031 120.347656 46.964844 106.195312 42.339844 C 104.414062 51.066406 104.414062 59.789062 106.195312 68.515625 C 106.800781 71.835938 107.078125 75.1875 107.039062 78.566406 C 106.996094 81.941406 106.632812 85.285156 105.949219 88.59375 C 105.265625 91.902344 104.273438 95.113281 102.972656 98.230469 C 101.671875 101.347656 100.085938 104.3125 98.214844 107.125 C 96.203125 110.179688 94.421875 113.367188 92.875 116.683594 C 91.324219 120 90.027344 123.410156 88.972656 126.914062 C 87.917969 130.417969 87.125 133.980469 86.589844 137.601562 C 86.054688 141.21875 85.785156 144.859375 85.777344 148.519531 C 85.777344 220.726562 120.675781 240.03125 173.019531 246.714844 C 173.875 246.820312 174.714844 246.984375 175.542969 247.207031 C 176.375 247.429688 177.183594 247.707031 177.972656 248.042969 C 178.765625 248.378906 179.527344 248.765625 180.265625 249.207031 C 181.003906 249.648438 181.707031 250.136719 182.375 250.675781 C 183.042969 251.214844 183.671875 251.796875 184.261719 252.421875 C 184.847656 253.046875 185.390625 253.710938 185.886719 254.410156 C 186.382812 255.113281 186.828125 255.84375 187.222656 256.605469 C 187.617188 257.371094 187.957031 258.15625 188.242188 258.964844 C 188.78125 260.546875 189.101562 262.167969 189.203125 263.832031 C 189.308594 265.5 189.1875 267.148438 188.84375 268.78125 C 188.5 270.414062 187.945312 271.972656 187.183594 273.457031 C 186.421875 274.941406 185.472656 276.300781 184.34375 277.527344 C 182.539062 279.457031 180.949219 281.550781 179.578125 283.8125 C 178.207031 286.070312 177.085938 288.445312 176.207031 290.9375 C 175.328125 293.429688 174.714844 295.984375 174.363281 298.605469 C 174.015625 301.222656 173.9375 303.851562 174.136719 306.484375 L 174.136719 356.417969 C 174.136719 357.027344 174.105469 357.632812 174.046875 358.238281 C 173.984375 358.84375 173.898438 359.445312 173.777344 360.039062 C 173.660156 360.636719 173.511719 361.226562 173.335938 361.808594 C 173.160156 362.390625 172.953125 362.960938 172.722656 363.523438 C 172.488281 364.082031 172.230469 364.632812 171.941406 365.167969 C 171.65625 365.707031 171.34375 366.226562 171.007812 366.730469 C 170.667969 367.238281 170.308594 367.726562 169.921875 368.195312 C 169.535156 368.664062 169.128906 369.113281 168.699219 369.542969 C 168.269531 369.972656 167.816406 370.382812 167.347656 370.769531 C 166.878906 371.152344 166.390625 371.515625 165.886719 371.851562 C 165.378906 372.191406 164.859375 372.503906 164.324219 372.789062 C 163.785156 373.074219 163.238281 373.335938 162.675781 373.566406 C 162.113281 373.800781 161.542969 374.003906 160.960938 374.183594 C 160.378906 374.359375 159.789062 374.507812 159.195312 374.625 C 158.597656 374.742188 157.996094 374.832031 157.390625 374.890625 C 156.785156 374.953125 156.179688 374.980469 155.574219 374.980469 C 154.964844 374.980469 154.359375 374.953125 153.753906 374.890625 C 153.148438 374.832031 152.546875 374.742188 151.949219 374.625 C 151.355469 374.507812 150.765625 374.359375 150.183594 374.183594 C 149.601562 374.003906 149.03125 373.800781 148.46875 373.566406 C 147.90625 373.335938 147.359375 373.074219 146.820312 372.789062 C 146.285156 372.503906 145.765625 372.191406 145.257812 371.851562 C 144.753906 371.515625 144.265625 371.152344 143.796875 370.769531 C 143.328125 370.382812 142.875 369.972656 142.445312 369.542969 C 142.015625 369.113281 141.609375 368.664062 141.222656 368.195312 C 140.835938 367.726562 140.476562 367.238281 140.136719 366.730469 C 139.800781 366.226562 139.488281 365.707031 139.203125 365.167969 C 138.914062 364.632812 138.65625 364.082031 138.421875 363.523438 C 138.191406 362.960938 137.984375 362.390625 137.808594 361.808594 C 137.632812 361.226562 137.484375 360.636719 137.367188 360.039062 C 137.246094 359.445312 137.160156 358.84375 137.097656 358.238281 C 137.039062 357.632812 137.011719 357.027344 137.011719 356.417969 L 137.011719 345.839844 C 132.46875 346.359375 127.910156 346.601562 123.335938 346.5625 C 118.765625 346.523438 114.210938 346.207031 109.679688 345.605469 C 105.144531 345.003906 100.664062 344.128906 96.242188 342.980469 C 91.816406 341.828125 87.476562 340.410156 83.226562 338.722656 C 78.976562 337.039062 74.84375 335.097656 70.832031 332.902344 C 66.820312 330.707031 62.960938 328.277344 59.246094 325.605469 C 55.535156 322.933594 52 320.046875 48.644531 316.941406 C 45.289062 313.835938 42.136719 310.535156 39.1875 307.042969 C 33.042969 300.234375 25.863281 294.789062 17.652344 290.707031 C 17.0625 290.554688 16.480469 290.375 15.910156 290.167969 C 15.335938 289.957031 14.777344 289.722656 14.226562 289.457031 C 13.679688 289.191406 13.144531 288.902344 12.625 288.585938 C 12.105469 288.269531 11.601562 287.929688 11.113281 287.5625 C 10.625 287.195312 10.160156 286.808594 9.710938 286.394531 C 9.261719 285.984375 8.835938 285.550781 8.429688 285.097656 C 8.023438 284.640625 7.640625 284.167969 7.28125 283.675781 C 6.921875 283.1875 6.585938 282.679688 6.277344 282.152344 C 5.964844 281.628906 5.683594 281.089844 5.425781 280.539062 C 5.167969 279.984375 4.941406 279.421875 4.738281 278.847656 C 4.539062 278.273438 4.363281 277.6875 4.222656 277.097656 C 4.078125 276.503906 3.960938 275.90625 3.875 275.304688 C 3.792969 274.703125 3.734375 274.097656 3.710938 273.488281 C 3.683594 272.878906 3.6875 272.269531 3.722656 271.664062 C 3.757812 271.054688 3.820312 270.449219 3.914062 269.847656 C 4.007812 269.246094 4.128906 268.648438 4.28125 268.058594 C 4.433594 267.46875 4.613281 266.890625 4.824219 266.316406 C 5.03125 265.746094 5.269531 265.183594 5.535156 264.636719 C 5.796875 264.085938 6.089844 263.550781 6.40625 263.03125 C 6.722656 262.511719 7.0625 262.007812 7.429688 261.519531 C 7.796875 261.035156 8.183594 260.566406 8.597656 260.117188 C 9.007812 259.667969 9.441406 259.242188 9.894531 258.835938 C 10.351562 258.429688 10.824219 258.046875 11.316406 257.6875 C 11.808594 257.328125 12.316406 256.996094 12.839844 256.683594 C 13.363281 256.375 13.902344 256.09375 14.457031 255.835938 C 15.007812 255.578125 15.570312 255.351562 16.144531 255.148438 C 16.722656 254.949219 17.304688 254.777344 17.898438 254.632812 C 18.488281 254.488281 19.085938 254.375 19.6875 254.289062 C 20.292969 254.203125 20.898438 254.148438 21.507812 254.121094 C 22.117188 254.097656 22.722656 254.101562 23.332031 254.136719 C 23.941406 254.167969 24.546875 254.234375 25.148438 254.328125 C 25.75 254.421875 26.34375 254.542969 26.933594 254.695312 C 34.074219 257.296875 40.785156 260.734375 47.070312 265.007812 C 53.351562 269.28125 59.015625 274.257812 64.058594 279.941406 C 82.621094 298.503906 101.183594 314.839844 136.453125 308.15625 C 136.144531 303.171875 136.347656 298.210938 137.066406 293.269531 C 137.785156 288.328125 139.003906 283.515625 140.722656 278.828125 C 102.484375 269.175781 47.910156 241.703125 47.910156 148.890625 C 47.898438 143.421875 48.285156 137.984375 49.074219 132.578125 C 49.863281 127.167969 51.042969 121.84375 52.617188 116.609375 C 54.1875 111.375 56.136719 106.28125 58.457031 101.332031 C 60.777344 96.382812 63.449219 91.632812 66.472656 87.078125 C 67.601562 85.386719 68.375 83.546875 68.792969 81.554688 C 69.207031 79.566406 69.238281 77.570312 68.886719 75.566406 C 67.953125 70.585938 67.382812 65.5625 67.171875 60.496094 C 66.960938 55.429688 67.117188 50.375 67.636719 45.332031 C 68.15625 40.289062 69.03125 35.308594 70.265625 30.390625 C 71.503906 25.476562 73.082031 20.671875 75.011719 15.984375 C 75.539062 14.726562 76.195312 13.539062 76.980469 12.429688 C 77.769531 11.316406 78.667969 10.304688 79.679688 9.386719 C 80.691406 8.472656 81.789062 7.679688 82.972656 7.007812 C 84.15625 6.335938 85.402344 5.800781 86.707031 5.402344 C 93.015625 3.546875 115.664062 -0.167969 158.542969 27.675781 C 167.191406 25.597656 175.929688 24.03125 184.761719 22.984375 C 193.59375 21.9375 202.457031 21.414062 211.351562 21.414062 C 220.246094 21.414062 229.109375 21.9375 237.941406 22.984375 C 246.777344 24.03125 255.515625 25.597656 264.164062 27.675781 C 307.042969 -0.167969 329.6875 3.359375 335.8125 5.402344 C 337.117188 5.800781 338.363281 6.335938 339.546875 7.007812 C 340.734375 7.679688 341.832031 8.472656 342.839844 9.386719 C 343.851562 10.304688 344.75 11.316406 345.539062 12.429688 C 346.324219 13.539062 346.980469 14.726562 347.507812 15.984375 C 349.441406 20.6875 351.023438 25.503906 352.261719 30.4375 C 353.5 35.371094 354.378906 40.367188 354.894531 45.425781 C 355.414062 50.484375 355.566406 55.554688 355.355469 60.632812 C 355.144531 65.714844 354.570312 70.753906 353.632812 75.753906 C 353.25 77.582031 353.234375 79.414062 353.589844 81.25 C 353.945312 83.085938 354.640625 84.78125 355.675781 86.335938 C 358.707031 90.902344 361.386719 95.667969 363.710938 100.632812 C 366.039062 105.597656 367.988281 110.703125 369.558594 115.957031 C 371.132812 121.207031 372.308594 126.546875 373.09375 131.972656 C 373.878906 137.398438 374.261719 142.851562 374.238281 148.332031 C 374.238281 242.445312 320.035156 269.730469 281.425781 278.269531 C 283.125 283.25 284.320312 288.351562 285.007812 293.566406 C 285.695312 298.785156 285.863281 304.019531 285.511719 309.269531 L 285.511719 356.417969 C 285.511719 357.59375 285.402344 358.753906 285.183594 359.90625 C 284.96875 361.0625 284.640625 362.183594 284.210938 363.273438 C 283.78125 364.367188 283.25 365.40625 282.621094 366.398438 C 281.992188 367.386719 281.277344 368.3125 280.472656 369.164062 C 279.667969 370.019531 278.792969 370.792969 277.84375 371.480469 C 276.890625 372.171875 275.886719 372.761719 274.824219 373.261719 C 273.761719 373.757812 272.660156 374.152344 271.523438 374.441406 C 270.386719 374.730469 269.234375 374.910156 268.0625 374.980469 Z M 268.0625 374.980469 " fill-opacity="1" fill-rule="nonzero"/></g></svg>