<svg xmlns="http://www.w3.org/2000/svg" xmlns:xlink="http://www.w3.org/1999/xlink" width="500" zoomAndPan="magnify" viewBox="0 0 375 374.999991" height="500" preserveAspectRatio="xMidYMid meet" version="1.0"><defs><clipPath id="eaf75858af"><path d="M 24.792969 2 L 350.292969 2 L 350.292969 373 L 24.792969 373 Z M 24.792969 2 " clip-rule="nonzero"/></clipPath></defs><g clip-path="url(#eaf75858af)"><path fill="#e44d26" d="M 54.34375 335.160156 L 24.703125 2.882812 L 350.386719 2.882812 L 320.722656 335.117188 L 187.335938 372.058594 Z M 54.34375 335.160156 " fill-opacity="1" fill-rule="nonzero"/></g><path fill="#f16529" d="M 295.316406 313.957031 L 320.675781 30.054688 L 187.542969 30.054688 L 187.542969 343.824219 Z M 295.316406 313.957031 " fill-opacity="1" fill-rule="nonzero"/><path fill="#ebebeb" d="M 187.40625 70.800781 L 85.300781 70.800781 L 96.300781 194.039062 L 187.542969 194.039062 L 187.542969 153.292969 L 133.59375 153.292969 L 129.867188 111.5625 L 187.542969 111.5625 L 187.542969 70.800781 Z M 187.542969 258.992188 L 187.371094 259.039062 L 141.960938 246.789062 L 139.078125 214.289062 L 98.125 214.289062 L 103.835938 278.273438 L 187.359375 301.347656 L 187.542969 301.289062 Z M 187.542969 258.992188 " fill-opacity="1" fill-rule="nonzero"/><path fill="#ffffff" d="M 187.40625 194.039062 L 237.613281 194.039062 L 233 246.878906 L 187.519531 259.144531 L 187.519531 301.542969 L 271.113281 278.386719 L 282.308594 153.269531 L 187.542969 153.269531 Z M 288.5625 81.738281 L 289.535156 70.800781 L 187.382812 70.800781 L 187.382812 111.550781 L 285.863281 111.550781 L 286.671875 102.390625 Z M 288.5625 81.738281 " fill-opacity="1" fill-rule="nonzero"/></svg>