<svg xmlns="http://www.w3.org/2000/svg" xmlns:xlink="http://www.w3.org/1999/xlink" width="500" zoomAndPan="magnify" viewBox="0 0 375 374.999991" height="500" preserveAspectRatio="xMidYMid meet" version="1.0"><defs><clipPath id="ccddc4f85e"><path d="M 4.378906 4.378906 L 370.378906 4.378906 L 370.378906 370.378906 L 4.378906 370.378906 Z M 4.378906 4.378906 " clip-rule="nonzero"/></clipPath><clipPath id="41b2e4910d"><path d="M 299 130 L 370.378906 130 L 370.378906 226 L 299 226 Z M 299 130 " clip-rule="nonzero"/></clipPath><clipPath id="d17baedfe2"><path d="M 4.378906 130 L 77 130 L 77 218 L 4.378906 218 Z M 4.378906 130 " clip-rule="nonzero"/></clipPath></defs><g clip-path="url(#ccddc4f85e)"><path fill="#f2f2f2" d="M 370.382812 187.378906 C 370.382812 288.445312 288.445312 370.378906 187.378906 370.378906 C 94.132812 370.378906 17.175781 300.640625 5.828125 210.464844 C 4.871094 202.910156 4.378906 195.199219 4.378906 187.378906 C 4.378906 173.050781 6.023438 159.105469 9.136719 145.726562 C 27.988281 64.730469 100.640625 4.378906 187.378906 4.378906 C 273.90625 4.378906 346.410156 64.433594 365.472656 145.132812 C 367.972656 155.6875 369.550781 166.589844 370.125 177.757812 C 370.296875 180.949219 370.382812 184.152344 370.382812 187.378906 Z M 370.382812 187.378906 " fill-opacity="1" fill-rule="nonzero"/></g><path fill="#3b8739" d="M 178.226562 202.074219 L 178.226562 154.496094 L 137.019531 130.703125 L 95.816406 154.496094 L 95.816406 202.074219 L 137.019531 225.863281 Z M 178.226562 202.074219 " fill-opacity="1" fill-rule="nonzero"/><g clip-path="url(#41b2e4910d)"><path fill="#333333" d="M 340.503906 194.855469 L 367.355469 210.363281 L 340.503906 225.867188 L 299.300781 202.078125 L 299.300781 154.5 L 340.503906 130.707031 L 365.472656 145.132812 C 367.972656 155.6875 369.550781 166.589844 370.125 177.757812 L 354.859375 186.574219 L 354.859375 169.996094 L 340.503906 161.714844 L 326.148438 169.996094 L 326.148438 186.574219 Z M 340.503906 194.855469 " fill-opacity="1" fill-rule="nonzero"/></g><path fill="#66a060" d="M 348.5 182.90625 L 348.5 173.667969 L 340.503906 169.050781 L 332.503906 173.667969 L 332.503906 182.90625 L 340.503906 187.523438 Z M 348.5 182.90625 " fill-opacity="1" fill-rule="nonzero"/><g clip-path="url(#d17baedfe2)"><path fill="#333333" d="M 76.351562 154.5 L 76.351562 217.238281 L 48.875 201.566406 L 48.875 169.398438 L 35.15625 161.476562 L 21.433594 169.398438 L 21.433594 201.5625 L 5.828125 210.464844 C 4.871094 202.910156 4.378906 195.199219 4.378906 187.378906 C 4.378906 173.050781 6.023438 159.105469 9.136719 145.726562 L 35.15625 130.707031 Z M 76.351562 154.5 " fill-opacity="1" fill-rule="nonzero"/></g><path fill="#6da75d" d="M 137.015625 130.703125 L 178.222656 202.070312 L 137.019531 225.859375 L 95.816406 154.492188 Z M 137.015625 130.703125 " fill-opacity="1" fill-rule="nonzero"/><path fill="#55a344" d="M 95.816406 202.074219 L 109.964844 179.003906 L 95.816406 154.496094 Z M 95.816406 202.074219 " fill-opacity="1" fill-rule="nonzero"/><path fill="#639d57" d="M 164.492188 178.285156 L 178.226562 154.496094 L 137.019531 130.703125 Z M 164.492188 178.285156 " fill-opacity="1" fill-rule="nonzero"/><path fill="#333333" d="M 252.109375 75.5625 L 252.109375 138.683594 L 238.300781 130.707031 L 197.089844 154.5 L 197.089844 202.078125 L 238.300781 225.867188 L 279.5 202.078125 L 279.5 90.222656 Z M 252.035156 186.214844 L 238.300781 194.148438 L 224.5625 186.214844 L 224.5625 170.355469 L 238.300781 162.421875 L 252.035156 170.355469 Z M 252.035156 186.214844 " fill-opacity="1" fill-rule="nonzero"/><path fill="#66a060" d="M 206.070312 260.804688 C 206.070312 260.804688 205.261719 253.851562 197.824219 253.851562 C 190.382812 253.851562 185.289062 254.820312 185.289062 258.945312 C 185.289062 263.070312 199.765625 263.070312 205.265625 264.6875 C 210.761719 266.304688 215.613281 270.507812 213.1875 277.949219 C 210.761719 285.390625 203.320312 286.199219 191.839844 286.199219 C 180.359375 286.199219 177.769531 276.65625 177.769531 272.933594 L 184.234375 272.933594 C 184.234375 272.933594 183.429688 278.757812 191.03125 279.730469 C 198.628906 280.695312 205.902344 281.246094 206.882812 275.363281 C 208.171875 267.597656 182.296875 271.480469 180.03125 263.878906 C 178.117188 257.460938 179.222656 249 192.164062 247.703125 C 205.101562 246.410156 212.21875 252.125 212.21875 260.644531 Z M 206.070312 260.804688 " fill-opacity="1" fill-rule="nonzero"/><path fill="#66a060" d="M 143.574219 291.125 L 157.878906 299.382812 C 165.066406 303.53125 174.046875 298.34375 174.046875 290.046875 L 174.046875 248.949219 L 168.21875 248.949219 L 168.21875 288.425781 C 168.21875 292.957031 163.3125 295.789062 159.386719 293.523438 L 149.40625 287.761719 L 149.40625 245.628906 L 185.894531 224.5625 L 222.378906 245.628906 L 222.378906 287.761719 L 185.894531 308.824219 L 175.378906 302.757812 L 168.519531 305.523438 L 185.894531 315.554688 L 228.207031 291.121094 L 228.207031 242.261719 L 185.894531 217.828125 L 143.574219 242.261719 Z M 143.574219 291.125 " fill-opacity="1" fill-rule="nonzero"/></svg>